<?xml version="1.0" encoding="utf-8"?>
<!-- Generator: Adobe Illustrator 20.0.0, SVG Export Plug-In . SVG Version: 6.00 Build 0)  -->
<svg version="1.1" id="Layer_1" xmlns="http://www.w3.org/2000/svg" xmlns:xlink="http://www.w3.org/1999/xlink" x="0px" y="0px"
	 viewBox="0 0 66.7 12.8" style="enable-background:new 0 0 66.7 12.8;" xml:space="preserve">
<style type="text/css">
	.st0{fill:#16757A;}
	.st1{fill:#346457;}
	.st2{fill:#F4B389;}
	.st3{fill:#E26A6A;}
	.st4{fill:#8AA2AC;}
	.st5{fill:#DBE0E0;}
	.st6{fill:#FFEDD8;}
	.st7{fill:#243E36;}
	.st8{fill:#F4B277;}
	.st9{fill:#212121;}
	.st10{fill:#FFFFFF;}
	.st11{fill:#38383F;}
</style>
<g>
	<path class="st10" d="M7.1,12.5l-4-5.9L1.9,7.9v4.6H0V0.3h1.9v6.3L8,0.3h1.4l-5,5l5,7.2H7.1z"/>
	<path class="st10" d="M12.2,12.5V0.3h1.9v12.2H12.2z"/>
	<path class="st10" d="M30.5,12.5V0.3l3-0.1c4.4-0.1,7.3,2.5,7.3,5.9c0,3.5-2.5,6.5-7.3,6.4L30.5,12.5z M33.8,11.6
		c3.2,0,4.9-2.2,4.9-5c0-3.2-2-5.5-5.7-5.5h-0.6v10.5H33.8z"/>
	<path class="st10" d="M43.5,6.5c0-3.5,2.8-6.5,6.3-6.5c3.6,0,6.3,2.6,6.3,6.3c0,3.5-2.8,6.5-6.3,6.5C46.2,12.8,43.5,10.2,43.5,6.5z
		 M54.1,6.5c0-3.5-2-5.7-4.3-5.7c-2.3,0-4.3,2-4.3,5.4c0,3.5,2,5.7,4.3,5.7C52.2,11.9,54.1,9.9,54.1,6.5z"/>
	<path class="st10" d="M59.3,12.5V0.3h7.4v1.3c-0.8-0.3-1.6-0.4-3.5-0.4h-2v4.8h4.1v0.9h-4.1v5.7H59.3z"/>
	<polygon class="st10" points="25.6,0.3 25.6,10.3 25.4,10.3 19.2,0.2 17.3,0.3 18.4,2.5 24.6,12.6 26.6,12.4 26.6,0.3 	"/>
	<polygon class="st10" points="19,12.5 19,2.5 19.2,2.5 18,0.3 18,12.5 	"/>
</g>
</svg>
