<?xml version="1.0" encoding="utf-8"?>
<!-- Generator: Adobe Illustrator 20.0.0, SVG Export Plug-In . SVG Version: 6.00 Build 0)  -->
<svg version="1.1" id="Layer_1" xmlns="http://www.w3.org/2000/svg" xmlns:xlink="http://www.w3.org/1999/xlink" x="0px" y="0px"
	 viewBox="0 0 146.9 28.1" style="enable-background:new 0 0 146.9 28.1;" xml:space="preserve">
<style type="text/css">
	.st0{fill:#16757A;}
	.st1{fill:#346457;}
	.st2{fill:#F4B389;}
	.st3{fill:#E26A6A;}
	.st4{fill:#8AA2AC;}
	.st5{fill:#DBE0E0;}
	.st6{fill:#FFEDD8;}
	.st7{fill:#243E36;}
	.st8{fill:#F4B277;}
	.st9{fill:#212121;}
	.st10{fill:#FFFFFF;}
	.st11{fill:#38383F;}
</style>
<polygon class="st11" points="20.7,0.6 17.7,0.6 4.2,14.4 4.2,0.6 0,0.6 0,27.5 4.2,27.5 4.2,17.4 7,14.5 15.7,27.5 20.8,27.5
	9.8,11.7 "/>
<rect x="26.9" y="0.6" class="st11" width="4.2" height="26.8"/>
<path class="st11" d="M73.7,0.5l-6.5,0.2v26.8l6.4,0.2c10.7,0.3,16.2-6.4,16.2-14C89.7,6.1,83.4,0.3,73.7,0.5z M74.5,25.6h-3.1V2.5
	h1.3c8.2,0,12.6,4.9,12.6,12C85.3,20.7,81.4,25.6,74.5,25.6z"/>
<path class="st11" d="M109.8,0c-7.8,0-13.9,6.5-13.9,14.3c0,8.2,5.9,13.9,13.8,13.9c7.8,0,14-6.5,14-14.3C123.7,5.7,117.7,0,109.8,0
	z M109.8,26.2c-5.1,0-9.5-4.8-9.5-12.5c0-7.5,4.3-11.9,9.4-11.9c5.2,0,9.6,4.8,9.6,12.5C119.3,21.9,115,26.2,109.8,26.2z"/>
<path class="st11" d="M139.3,2.6c4,0,5.8,0.3,7.6,0.9V0.6h-16.3v26.8h4.1V15h9v-1.9h-9V2.6H139.3z"/>
<polygon class="st11" points="56.3,22.6 56,22.6 42.4,0.5 38,0.6 39.7,3.8 39.7,27.5 42,27.5 42,7.7 54.3,27.7 58.6,27.4 58.6,0.6
	56.3,0.6 "/>
</svg>
