<?xml version="1.0" encoding="utf-8"?>
<!-- Generator: Adobe Illustrator 20.0.0, SVG Export Plug-In . SVG Version: 6.00 Build 0)  -->
<svg version="1.1" id="Layer_1" xmlns="http://www.w3.org/2000/svg" xmlns:xlink="http://www.w3.org/1999/xlink" x="0px" y="0px"
	 viewBox="0 0 5686.9 5686.9" style="enable-background:new 0 0 5686.9 5686.9;" xml:space="preserve">
<style type="text/css">
	.st0{fill:#181818;}
	.st1{fill:#FFFFFF;}
</style>
<path class="st0" d="M2843.5,5677.8L2843.5,5677.8c-1565.4,0-2834.3-1269-2834.3-2834.3v0C9.1,1278.1,1278.1,9.1,2843.4,9.1h0
	c1565.4,0,2834.3,1269,2834.3,2834.3v0C5677.8,4408.8,4408.8,5677.8,2843.5,5677.8z"/>
<g>
	<path class="st1" d="M1336.9,3216.4L1093.5,2856l-77.6,78.7v281.7H900.2v-745.8h115.8v383l374.7-383h84.8l-303.1,306.7l305.5,439.1
		H1336.9z"/>
	<path class="st1" d="M1599.4,3216.4v-745.8h115.8v745.8H1599.4z"/>
	<path class="st1" d="M2668.6,3215.2v-743.5l181.4-4.8c267.3-7.2,443.9,155.2,443.9,362.8c0,212.4-150.4,398.6-448.7,390.2
		L2668.6,3215.2z M2870.3,3163.9c193.3,0,300.7-134.8,300.7-306.7c0-198.1-121.7-334.1-350.8-334.1h-35.8v640.8H2870.3
		L2870.3,3163.9z"/>
	<path class="st1" d="M3418,2848.8c0-216,170.6-396.2,386.7-396.2c218.4,0,384.3,157.6,384.3,385.4c0,216-171.8,396.2-387.8,396.2
		C3582.7,3234.3,3418,3075.6,3418,2848.8z M4066,2851.2c0-213.6-122.9-346.1-266.1-346.1c-142,0-260.2,120.5-260.2,329.3
		c0,214.8,122.9,347.3,265,347.3C3946.7,3181.8,4066,3061.2,4066,2851.2z"/>
	<path class="st1" d="M4334.5,3216.4v-745.8h452.3v77.6c-51.3-15.5-100.2-23.9-212.4-23.9H4449v292.4h250.6v53.7H4449v346.1
		L4334.5,3216.4L4334.5,3216.4L4334.5,3216.4z"/>
	<polygon class="st1" points="2414.5,2470.6 2414.5,3081.6 2406.1,3081.6 1971.6,2465.8 1849.9,2475.3 1849.9,2490 1906.1,2571 
		1906.1,3216.4 1969.3,3216.4 1969.3,2662 2358.4,3222.3 2477.7,3212.8 2477.7,2470.6 	"/>
</g>
<rect x="5174.6" y="-2828.6" class="st0" width="1984" height="1984"/>
<g>
	<path class="st0" d="M5847.7-4986.2l-294.6-436.2l-93.9,95.3v340.9h-140.1v-902.7h140.1v463.6l453.5-463.6h102.6l-366.9,371.2
		l369.8,531.5H5847.7z"/>
	<path class="st0" d="M6165.5-4986.2v-902.7h140.1v902.7H6165.5z"/>
	<path class="st0" d="M7459.6-4987.6v-899.9l219.5-5.8c323.5-8.7,537.3,187.8,537.3,439.1c0,257.1-182,482.4-543.1,472.3
		L7459.6-4987.6z M7703.7-5049.8c234,0,364-163.2,364-371.2c0-239.8-147.3-404.4-424.6-404.4h-43.3v775.6L7703.7-5049.8
		L7703.7-5049.8z"/>
	<path class="st0" d="M8366.6-5431.1c0-261.4,206.5-479.5,468-479.5c264.3,0,465.1,190.7,465.1,466.5c0,261.4-208,479.5-469.4,479.5
		C8566-4964.5,8366.6-5156.6,8366.6-5431.1z M9150.9-5428.2c0-258.5-148.8-418.9-322.1-418.9c-171.9,0-314.9,145.9-314.9,398.6
		c0,260,148.8,420.3,320.7,420.3C9006.5-5028.1,9150.9-5174,9150.9-5428.2z"/>
	<path class="st0" d="M9475.9-4986.2v-902.7h547.4v93.9c-62.1-18.8-121.3-28.9-257.1-28.9h-151.7v353.9h303.3v65h-303.3v418.9
		L9475.9-4986.2L9475.9-4986.2L9475.9-4986.2z"/>
	<polygon class="st0" points="7152,-5888.9 7152,-5149.4 7141.9,-5149.4 6616,-5894.7 6468.7,-5883.2 6468.7,-5865.4 
		6536.7,-5767.4 6536.7,-4986.2 6613.2,-4986.2 6613.2,-5657.2 7084.1,-4979 7228.5,-4990.5 7228.5,-5888.9 	"/>
</g>
<path class="st1" d="M6159.7-1832c0-186.7,147.5-342.5,334.3-342.5c188.8,0,332.2,136.2,332.2,333.2
	c0,186.7-148.6,342.5-335.3,342.5C6302.1-1498.7,6159.7-1635.9,6159.7-1832z M6719.9-1829.9c0-184.6-106.3-299.2-230.1-299.2
	c-122.8,0-224.9,104.2-224.9,284.7c0,185.7,106.3,300.2,229.1,300.2C6616.8-1544.1,6719.9-1648.3,6719.9-1829.9z"/>
<path class="st1" d="M5952.6-1514.2l-210.4-311.6l-67.1,68.1v243.5H5575V-2159h100.1v331.1L5999-2159h73.3l-262.1,265.2l264.1,379.6
	H5952.6z"/>
</svg>
