<?xml version="1.0" encoding="utf-8"?>
<!-- Generator: Adobe Illustrator 20.0.0, SVG Export Plug-In . SVG Version: 6.00 Build 0)  -->
<svg version="1.1" id="Layer_1" xmlns="http://www.w3.org/2000/svg" xmlns:xlink="http://www.w3.org/1999/xlink" x="0px" y="0px"
	 viewBox="0 0 4704.2 946.1" style="enable-background:new 0 0 4704.2 946.1;" xml:space="preserve">
<style type="text/css">
	.st0{fill:#FFFFFF;}
	.st1{fill:#181818;}
</style>
<g>
	<path class="st1" d="M528.6,924.4L234,488.2l-93.9,95.3v340.9H0V21.7h140.1v463.6L593.6,21.7h102.6L329.3,392.9l369.8,531.5H528.6z
		"/>
	<path class="st1" d="M846.4,924.4V21.7h140.1v902.7H846.4z"/>
	<path class="st1" d="M2140.5,923V23.1l219.5-5.8c323.5-8.7,537.3,187.8,537.3,439.1c0,257.1-182,482.4-543.1,472.3L2140.5,923z
		 M2384.6,860.8c234,0,364-163.2,364-371.2c0-239.8-147.3-404.4-424.6-404.4h-43.3v775.6H2384.6z"/>
	<path class="st1" d="M3047.5,479.5c0-261.4,206.5-479.5,468-479.5c264.3,0,465.1,190.7,465.1,466.5c0,261.4-208,479.5-469.4,479.5
		C3246.9,946.1,3047.5,754,3047.5,479.5z M3831.8,482.4c0-258.5-148.8-418.9-322.1-418.9c-171.9,0-314.9,145.9-314.9,398.6
		c0,260,148.8,420.3,320.7,420.3C3687.4,882.5,3831.8,736.6,3831.8,482.4z"/>
	<path class="st1" d="M4156.8,924.4V21.7h547.4v93.9c-62.1-18.8-121.3-28.9-257.1-28.9h-151.7v353.9h303.3v65h-303.3v418.9H4156.8z"
		/>
	<polygon class="st1" points="1832.9,21.7 1832.9,761.2 1822.8,761.2 1296.9,15.9 1149.6,27.4 1149.6,45.2 1217.6,143.2 
		1217.6,924.4 1294.1,924.4 1294.1,253.4 1765,931.6 1909.4,920.1 1909.4,21.7 	"/>
</g>
</svg>
