<svg id="dc825f64-e0b5-438a-b8e1-de966e02c083" data-name="Layer 1" xmlns="http://www.w3.org/2000/svg" viewBox="0 0 26.5 16.51"><title>menu</title><path d="M0,0H2.5V2.5H0Z" fill-rule="evenodd"/><path d="M8,0h2.5V2.5H8Z" fill-rule="evenodd"/><path d="M16,0h2.5V2.5H16Z" fill-rule="evenodd"/><path d="M24,0h2.5V2.5H24Z" fill-rule="evenodd"/><path d="M0,7H2.5V9.5H0Z" fill-rule="evenodd"/><path d="M8,7h2.5V9.5H8Z" fill-rule="evenodd"/><path d="M16,7h2.5V9.5H16Z" fill-rule="evenodd"/><path d="M24,7h2.5V9.5H24Z" fill-rule="evenodd"/><path d="M0,14H2.5v2.5H0Z" fill-rule="evenodd"/><path d="M8,14h2.5v2.5H8Z" fill-rule="evenodd"/><path d="M16,14h2.5v2.5H16Z" fill-rule="evenodd"/><path d="M24,14h2.5v2.5H24Z" fill-rule="evenodd"/></svg>