<svg id="Capa_1" data-name="Capa 1" xmlns="http://www.w3.org/2000/svg" viewBox="0 0 34.97 34.94"><title>pencil</title><path d="M34.26,6,28.93.67a2.42,2.42,0,0,0-3.35,0L3.29,23a2.33,2.33,0,0,0-.66,1.41L0,33.77a.9.9,0,0,0,.24.9.93.93,0,0,0,.66.28.35.35,0,0,0,.24,0l9.38-2.59a2.21,2.21,0,0,0,1.37-.66L34.26,9.3A2.28,2.28,0,0,0,34.26,6ZM21.16,7.79l2.31,2.31L6.59,27l-2-2a.43.43,0,0,1-.14-.33v0a.51.51,0,0,1,.14-.33ZM3.85,26.93,8,31.08,2.3,32.63Zm6.74,3.39a.46.46,0,0,1-.66,0l-2-2L24.83,11.47l2.36,2.36ZM32.94,8l-4.48,4.48-6-6L27,2a.51.51,0,0,1,.33-.14.43.43,0,0,1,.33.14l5.33,5.33A.46.46,0,0,1,32.94,8Z"/></svg>
