<svg id="Capa_1" data-name="Capa 1" xmlns="http://www.w3.org/2000/svg" viewBox="0 0 4.81 4.81"><defs><style>.cls-1{fill:#333;}</style></defs><title>photo</title><path class="cls-1" d="M2.4,0a2.4,2.4,0,1,0,2.4,2.4A2.4,2.4,0,0,0,2.4,0ZM4.3,1.5H2.4l-.17,0L2.91.36A2.1,2.1,0,0,1,4.3,1.5ZM3,2.4a.6.6,0,1,1-.11-.34v0A.6.6,0,0,1,3,2.4ZM2.4.3h.18L1.67,1.88h0L1.59,2,.93.9A2.1,2.1,0,0,1,2.4.3ZM.3,2.4A2.09,2.09,0,0,1,.72,1.15l.78,1.3A.9.9,0,0,0,1.73,3H.38A2.1,2.1,0,0,1,.3,2.4Zm.21.9H2.4l.17,0L1.9,4.45A2.1,2.1,0,0,1,.51,3.31Zm1.9,1.2H2.22l.91-1.57h0a.9.9,0,0,0,.14-.3L4,3.75A2.1,2.1,0,0,1,2.4,4.51Zm.75-2.59,0,0v0h0L3.07,1.8H4.42a2.08,2.08,0,0,1-.21,1.68Z"/></svg>
